<?xml version="1.0" encoding="utf-8"?>
<svg version="1.1" id="_x31_" xmlns="http://www.w3.org/2000/svg" xmlns:xlink="http://www.w3.org/1999/xlink" x="0px" y="0px"
	 width="1200px" height="1200px" viewBox="0 0 1200 1200" enable-background="new 0 0 1200 1200" xml:space="preserve">
<g>
	<path fill="currentColor" d="M946.802,71.756c-6.905-6.179-15.836-9.613-25.102-9.613H318.343c-54.286,0-202.857,200-214.286,232.857
		c-11.429,32.857,24.286,35.714,51.429,22.857c27.143-12.857,80,30,68.571,85.714s-98.571,184.286-115.714,270
		c-17.143,85.714,6,464.286,478.714,464.286c481.286,0,502.922-424.276,509.857-567.143
		C1104.057,423.571,1083.004,193.636,946.802,71.756z M1041.2,625c-42.857,348.571-228.571,465.714-474.286,465.714
		c-214.429,0-375.714-175.714-394.286-314.286C154.057,637.857,269.771,477.857,291.2,400.714
		c21.429-77.143-20-172.857-71.429-155.714c0,0,65.714-78.571,87.143-78.571h618.217c8.211,0,16.096,3.148,22.075,8.775
		C981.224,207.221,1077.274,331.594,1041.2,625z"/>
	<circle fill="currentColor" cx="609.641" cy="596.158" r="39.863"/>
	<path fill="currentColor" d="M759.393,568.755c0-37.15-30.116-67.266-67.266-67.266c-10.104,0-19.68,2.242-28.279,6.234
		c-8.874-26.774-34.096-46.097-63.847-46.097c-37.15,0-67.266,30.116-67.266,67.266c0,0.283,0.018,0.562,0.021,0.845
		c-3.465-0.55-7.015-0.845-10.635-0.845c-37.15,0-67.266,30.116-67.266,67.266c0,34.893,26.569,63.576,60.579,66.933
		c-0.294,2.552-0.461,5.142-0.461,7.773c0,37.15,30.116,67.266,67.266,67.266c20.538,0,38.915-9.216,51.253-23.725
		c8.874,4.314,18.837,6.738,29.367,6.738c37.15,0,67.266-30.116,67.266-67.266c0-9.338-1.906-18.231-5.345-26.313
		C745.421,616.078,759.393,594.053,759.393,568.755z M609.641,653.877c-31.877,0-57.719-25.842-57.719-57.719
		c0-31.877,25.842-57.719,57.719-57.719c31.877,0,57.719,25.842,57.719,57.719C667.36,628.035,641.518,653.877,609.641,653.877z"/>
	<path fill="currentColor" d="M432.127,521.618c-2.947-0.032-5.304-2.447-5.302-5.394c0.01-16.971,1.3-75.948,17.305-139.641
		c18.991-75.574,58.82-124.596,141.544-159.83s196.596-40.34,257.362-30.638s132.766,63.319,146.553,104.681
		c13.787,41.362-12.766,39.83-71.489,19.915s-137.872-30.128-203.745,14.298s-101.617,57.702-110.298,39.83
		s-17.872-59.234-20.936-59.745c-3.064-0.511-58.723,17.362-79.149,73.532c-20.426,56.17-12.255,101.617-24,122.553
		C470.389,518.263,443.806,521.747,432.127,521.618z"/>
	<path fill="currentColor" d="M293.078,471.052c-16.671,7.366-66.894,138.383-62.298,214.979
		c4.596,76.596,59.745,162.894,124.596,204.255c64.851,41.362,94.468,54.638,114.894,53.106
		c20.426-1.532,22.979-20.936,59.234-43.915c36.255-22.979,124.085-70.468,126.638-92.936s-26.043-68.426-35.745-64.34
		c-9.702,4.085-165.544,79.66-165.544,79.66s19.501-36.255,12.863-53.106c-6.638-16.851-88.228-40.241-132.766-98.553
		C285.419,605.35,315.036,461.35,293.078,471.052z"/>
	<path fill="currentColor" d="M531.036,1033.775c0,0,159.319-72.511,189.447-105.702c30.128-33.192,68.425-194.553,96-212.936
		c27.574-18.383,71.489-34.213,74.553-48.511s-105.191-89.872-111.83-98.043s27.574-61.787,56.17-63.83
		c28.596-2.043,130.213,112.34,132.255,174.638s-54.303,204.941-123.064,273.702c-91.404,91.404-206.242,102.128-244.568,104.681
		C561.674,1060.328,525.462,1036.339,531.036,1033.775z"/>
</g>
</svg>